# xmcd
#
# Track frame offsets: 
#        150
#        13016
#        25985
#        35920
#        46254
#        61450
#        73218
#        99209
#        110226
#        128854
#        138738
#        154144
#
# Disc length: 2239 seconds
#
# Revision: 0
# Processed by: cddbd v1.5.2PL0 Copyright (c) Steve Scherf et al.
# Submitted via: ExactAudioCopy v1.0b3
#
DISCID=b108bd0c
DTITLE=Рви Меха Оркестр - 10 оборотов
DYEAR=2011
DGENRE=Balkan/Ska
TTITLE0=Одесса
TTITLE1=Клубная
TTITLE2=Уг
TTITLE3=Весна
TTITLE4=Шофер
TTITLE5=Дядя Вася
TTITLE6=Время
TTITLE7=Gipsy dance
TTITLE8=Парашютисты
TTITLE9=Мерри Попинс
TTITLE10=Ракия
TTITLE11=Манеа
EXTD=
EXTT0=
EXTT1=
EXTT2=
EXTT3=
EXTT4=
EXTT5=
EXTT6=
EXTT7=
EXTT8=
EXTT9=
EXTT10=
EXTT11=
PLAYORDER=
